<svg width="1110" height="683" viewBox="0 0 1110 683" fill="none" xmlns="http://www.w3.org/2000/svg">
<g clip-path="url(#clip0_3_889)">
<rect x="5" y="5" width="1100" height="673" rx="20" fill="white"/>
<path d="M26 29.6937C23.6988 29.6937 21.8334 27.8283 21.8334 25.527C21.8334 23.2258 23.6988 21.3604 26 21.3604C28.3013 21.3604 30.1667 23.2258 30.1667 25.527C30.1667 27.8283 28.3013 29.6937 26 29.6937Z" fill="#E11D48"/>
<path d="M41 29.6937C38.6988 29.6937 36.8334 27.8283 36.8334 25.527C36.8334 23.2258 38.6988 21.3604 41 21.3604C43.3013 21.3604 45.1667 23.2258 45.1667 25.527C45.1667 27.8283 43.3013 29.6937 41 29.6937Z" fill="#FBBF24"/>
<path d="M56 29.6937C53.6988 29.6937 51.8334 27.8283 51.8334 25.527C51.8334 23.2258 53.6988 21.3604 56 21.3604C58.3013 21.3604 60.1667 23.2258 60.1667 25.527C60.1667 27.8283 58.3013 29.6937 56 29.6937Z" fill="#22C55E"/>
<path d="M1046.76 25.4999L1051.71 30.4499C1051.8 30.5422 1051.88 30.6525 1051.93 30.7745C1051.98 30.8965 1052.01 31.0278 1052.01 31.1605C1052.01 31.2933 1051.99 31.425 1051.94 31.5479C1051.89 31.6708 1051.81 31.7824 1051.72 31.8763C1051.63 31.9702 1051.51 32.0445 1051.39 32.0948C1051.27 32.145 1051.14 32.1703 1051 32.1692C1050.87 32.168 1050.74 32.1404 1050.62 32.088C1050.5 32.0356 1050.39 31.9594 1050.29 31.8639L1044.64 26.2069C1044.45 26.0194 1044.34 25.7651 1044.34 25.4999C1044.34 25.2348 1044.45 24.9805 1044.64 24.7929L1050.29 19.1359C1050.48 18.9538 1050.73 18.853 1051 18.8553C1051.26 18.8575 1051.51 18.9627 1051.69 19.1481C1051.88 19.3335 1051.99 19.5843 1051.99 19.8465C1051.99 20.1087 1051.89 20.3613 1051.71 20.5499L1046.76 25.4999Z" fill="#94A3B8"/>
<path d="M1078.31 25.571L1073.36 20.621C1073.18 20.4324 1073.08 20.1798 1073.08 19.9176C1073.09 19.6554 1073.19 19.4046 1073.38 19.2192C1073.56 19.0338 1073.81 18.9286 1074.07 18.9263C1074.34 18.924 1074.59 19.0248 1074.78 19.207L1080.44 24.864C1080.62 25.0515 1080.73 25.3058 1080.73 25.571C1080.73 25.8361 1080.62 26.0905 1080.44 26.278L1074.78 31.935C1074.59 32.1171 1074.34 32.2179 1074.07 32.2157C1073.81 32.2134 1073.56 32.1082 1073.38 31.9228C1073.19 31.7374 1073.09 31.4866 1073.08 31.2244C1073.08 30.9622 1073.18 30.7096 1073.36 30.521L1078.31 25.571Z" fill="#475569"/>
<rect x="308.515" y="13" width="494.903" height="25" rx="5" fill="#F1F5F9"/>
<path d="M540.398 28.875L542.027 23.6602H542.742L542.601 24.6973L540.943 30H540.246L540.398 28.875ZM539.302 23.6602L540.691 28.9336L540.791 30H540.058L538.219 23.6602H539.302ZM544.301 28.8926L545.625 23.6602H546.703L544.863 30H544.136L544.301 28.8926ZM542.9 23.6602L544.494 28.7871L544.676 30H543.984L542.279 24.6855L542.138 23.6602H542.9ZM548.9 24.6562V30H547.816V23.6602H548.871L548.9 24.6562ZM550.881 23.625L550.875 24.6328C550.785 24.6133 550.699 24.6016 550.617 24.5977C550.539 24.5898 550.449 24.5859 550.347 24.5859C550.097 24.5859 549.877 24.625 549.685 24.7031C549.494 24.7812 549.332 24.8906 549.199 25.0312C549.066 25.1719 548.961 25.3398 548.883 25.5352C548.808 25.7266 548.76 25.9375 548.736 26.168L548.431 26.3438C548.431 25.9609 548.469 25.6016 548.543 25.2656C548.621 24.9297 548.74 24.6328 548.9 24.375C549.06 24.1133 549.263 23.9102 549.51 23.7656C549.76 23.6172 550.056 23.543 550.4 23.543C550.478 23.543 550.568 23.5527 550.67 23.5723C550.771 23.5879 550.842 23.6055 550.881 23.625ZM551.174 29.4258C551.174 29.2422 551.23 29.0879 551.344 28.9629C551.461 28.834 551.629 28.7695 551.847 28.7695C552.066 28.7695 552.232 28.834 552.345 28.9629C552.463 29.0879 552.521 29.2422 552.521 29.4258C552.521 29.6055 552.463 29.7578 552.345 29.8828C552.232 30.0078 552.066 30.0703 551.847 30.0703C551.629 30.0703 551.461 30.0078 551.344 29.8828C551.23 29.7578 551.174 29.6055 551.174 29.4258ZM558.058 28.916V25.6523C558.058 25.4023 558.008 25.1855 557.906 25.002C557.808 24.8145 557.66 24.6699 557.461 24.5684C557.261 24.4668 557.015 24.416 556.722 24.416C556.449 24.416 556.209 24.4629 556.002 24.5566C555.799 24.6504 555.638 24.7734 555.521 24.9258C555.408 25.0781 555.351 25.2422 555.351 25.418H554.267C554.267 25.1914 554.326 24.9668 554.443 24.7441C554.56 24.5215 554.728 24.3203 554.947 24.1406C555.17 23.957 555.435 23.8125 555.744 23.707C556.056 23.5977 556.404 23.543 556.787 23.543C557.248 23.543 557.654 23.6211 558.006 23.7773C558.361 23.9336 558.638 24.1699 558.838 24.4863C559.041 24.7988 559.142 25.1914 559.142 25.6641V28.6172C559.142 28.8281 559.16 29.0527 559.195 29.291C559.234 29.5293 559.291 29.7344 559.365 29.9062V30H558.234C558.179 29.875 558.136 29.709 558.105 29.502C558.074 29.291 558.058 29.0957 558.058 28.916ZM558.246 26.1562L558.258 26.918H557.162C556.853 26.918 556.578 26.9434 556.336 26.9941C556.094 27.041 555.89 27.1133 555.726 27.2109C555.562 27.3086 555.437 27.4316 555.351 27.5801C555.265 27.7246 555.222 27.8945 555.222 28.0898C555.222 28.2891 555.267 28.4707 555.357 28.6348C555.447 28.7988 555.582 28.9297 555.761 29.0273C555.945 29.1211 556.17 29.168 556.435 29.168C556.767 29.168 557.06 29.0977 557.314 28.957C557.568 28.8164 557.769 28.6445 557.918 28.4414C558.07 28.2383 558.152 28.041 558.164 27.8496L558.627 28.3711C558.599 28.5352 558.525 28.7168 558.404 28.916C558.283 29.1152 558.121 29.3066 557.918 29.4902C557.719 29.6699 557.48 29.8203 557.203 29.9414C556.929 30.0586 556.621 30.1172 556.277 30.1172C555.847 30.1172 555.47 30.0332 555.146 29.8652C554.826 29.6973 554.576 29.4727 554.396 29.1914C554.22 28.9062 554.133 28.5879 554.133 28.2363C554.133 27.8965 554.199 27.5977 554.332 27.3398C554.465 27.0781 554.656 26.8613 554.906 26.6895C555.156 26.5137 555.457 26.3809 555.808 26.291C556.16 26.2012 556.552 26.1562 556.986 26.1562H558.246ZM561.931 24.8789V32.4375H560.842V23.6602H561.838L561.931 24.8789ZM566.203 26.7773V26.9004C566.203 27.3613 566.148 27.7891 566.039 28.1836C565.929 28.5742 565.769 28.9141 565.558 29.2031C565.351 29.4922 565.095 29.7168 564.791 29.877C564.486 30.0371 564.136 30.1172 563.742 30.1172C563.34 30.1172 562.984 30.0508 562.676 29.918C562.367 29.7852 562.105 29.5918 561.89 29.3379C561.676 29.084 561.504 28.7793 561.375 28.4238C561.25 28.0684 561.164 27.668 561.117 27.2227V26.5664C561.164 26.0977 561.252 25.6777 561.381 25.3066C561.51 24.9355 561.679 24.6191 561.89 24.3574C562.105 24.0918 562.365 23.8906 562.67 23.7539C562.974 23.6133 563.326 23.543 563.724 23.543C564.123 23.543 564.476 23.6211 564.785 23.7773C565.094 23.9297 565.353 24.1484 565.564 24.4336C565.775 24.7188 565.933 25.0605 566.039 25.459C566.148 25.8535 566.203 26.293 566.203 26.7773ZM565.113 26.9004V26.7773C565.113 26.4609 565.08 26.1641 565.013 25.8867C564.947 25.6055 564.844 25.3594 564.703 25.1484C564.566 24.9336 564.39 24.7656 564.176 24.6445C563.961 24.5195 563.705 24.457 563.408 24.457C563.135 24.457 562.896 24.5039 562.693 24.5977C562.494 24.6914 562.324 24.8184 562.183 24.9785C562.043 25.1348 561.927 25.3145 561.838 25.5176C561.752 25.7168 561.687 25.9238 561.644 26.1387V27.6562C561.722 27.9297 561.832 28.1875 561.972 28.4297C562.113 28.668 562.301 28.8613 562.535 29.0098C562.769 29.1543 563.064 29.2266 563.42 29.2266C563.713 29.2266 563.965 29.166 564.176 29.0449C564.39 28.9199 564.566 28.75 564.703 28.5352C564.844 28.3203 564.947 28.0742 565.013 27.7969C565.08 27.5156 565.113 27.2168 565.113 26.9004ZM568.67 24.8789V32.4375H567.58V23.6602H568.576L568.67 24.8789ZM572.941 26.7773V26.9004C572.941 27.3613 572.886 27.7891 572.777 28.1836C572.668 28.5742 572.508 28.9141 572.297 29.2031C572.09 29.4922 571.834 29.7168 571.529 29.877C571.224 30.0371 570.875 30.1172 570.48 30.1172C570.078 30.1172 569.722 30.0508 569.414 29.918C569.105 29.7852 568.844 29.5918 568.629 29.3379C568.414 29.084 568.242 28.7793 568.113 28.4238C567.988 28.0684 567.902 27.668 567.855 27.2227V26.5664C567.902 26.0977 567.99 25.6777 568.119 25.3066C568.248 24.9355 568.418 24.6191 568.629 24.3574C568.844 24.0918 569.103 23.8906 569.408 23.7539C569.713 23.6133 570.064 23.543 570.463 23.543C570.861 23.543 571.215 23.6211 571.523 23.7773C571.832 23.9297 572.092 24.1484 572.302 24.4336C572.513 24.7188 572.672 25.0605 572.777 25.459C572.886 25.8535 572.941 26.293 572.941 26.7773ZM571.851 26.9004V26.7773C571.851 26.4609 571.818 26.1641 571.752 25.8867C571.685 25.6055 571.582 25.3594 571.441 25.1484C571.304 24.9336 571.129 24.7656 570.914 24.6445C570.699 24.5195 570.443 24.457 570.146 24.457C569.873 24.457 569.635 24.5039 569.431 24.5977C569.232 24.6914 569.062 24.8184 568.922 24.9785C568.781 25.1348 568.666 25.3145 568.576 25.5176C568.49 25.7168 568.426 25.9238 568.383 26.1387V27.6562C568.461 27.9297 568.57 28.1875 568.711 28.4297C568.851 28.668 569.039 28.8613 569.273 29.0098C569.508 29.1543 569.802 29.2266 570.158 29.2266C570.451 29.2266 570.703 29.166 570.914 29.0449C571.129 28.9199 571.304 28.75 571.441 28.5352C571.582 28.3203 571.685 28.0742 571.752 27.7969C571.818 27.5156 571.851 27.2168 571.851 26.9004Z" fill="#94A3B8"/>
<path d="M71.3317 177.456C71.3317 174.664 73.8065 172.4 76.8593 172.4H168.987C172.039 172.4 174.514 174.664 174.514 177.456C174.514 180.248 172.039 182.512 168.987 182.512H76.8593C73.8065 182.512 71.3317 180.248 71.3317 177.456Z" fill="white"/>
<path d="M71.3317 231.387C71.3317 228.594 73.8065 226.331 76.8593 226.331H140.427C143.48 226.331 145.955 228.594 145.955 231.387C145.955 234.179 143.48 236.443 140.427 236.443H76.8593C73.8065 236.443 71.3317 234.179 71.3317 231.387Z" fill="white"/>
<path d="M71.3317 285.317C71.3317 282.525 73.8065 280.261 76.8593 280.261H156.089C159.142 280.261 161.616 282.525 161.616 285.317C161.616 288.11 159.142 290.373 156.089 290.373H76.8593C73.8065 290.373 71.3317 288.11 71.3317 285.317Z" fill="white"/>
<path fill-rule="evenodd" clip-rule="evenodd" d="M443.987 378.483C444.041 373.677 448.215 369.584 453.581 369.584C456.874 369.584 459.296 371.075 460.842 372.479C461.273 372.87 461.642 373.26 461.951 373.619C462.261 373.26 462.63 372.87 463.061 372.479C464.607 371.075 467.029 369.584 470.322 369.584C475.688 369.584 479.862 373.677 479.916 378.483L479.916 378.483C480.018 387.858 471.783 394.343 463.506 399.482C463.048 399.768 462.506 399.92 461.951 399.92C461.397 399.92 460.855 399.768 460.397 399.482C452.119 394.343 443.884 387.858 443.987 378.483L443.987 378.483ZM463.186 376.472C462.951 376.899 462.474 377.168 461.951 377.168C461.429 377.168 460.952 376.899 460.717 376.472C460.717 376.472 460.716 376.471 460.715 376.469C460.714 376.466 460.711 376.462 460.707 376.455C460.705 376.451 460.703 376.447 460.7 376.442C460.684 376.416 460.659 376.372 460.622 376.315C460.55 376.199 460.437 376.027 460.283 375.817C459.975 375.395 459.511 374.832 458.895 374.273C457.657 373.149 455.894 372.112 453.581 372.112C449.832 372.112 446.79 374.993 446.75 378.509M463.186 376.472C463.186 376.472 463.187 376.471 463.187 376.469C463.19 376.465 463.195 376.456 463.203 376.442C463.218 376.416 463.244 376.372 463.28 376.315C463.353 376.199 463.466 376.027 463.619 375.817C463.928 375.395 464.392 374.832 465.008 374.273C466.246 373.149 468.009 372.112 470.322 372.112C474.07 372.112 477.113 374.993 477.153 378.509C477.239 386.408 470.303 392.207 461.953 397.391L461.951 397.392L461.95 397.391C453.599 392.207 446.664 386.408 446.75 378.509" fill="white"/>
<path d="M248.216 450.48C248.216 447.688 250.691 445.424 253.744 445.424H331.131C334.183 445.424 336.658 447.688 336.658 450.48C336.658 453.272 334.183 455.536 331.131 455.536H253.744C250.691 455.536 248.216 453.272 248.216 450.48Z" fill="white"/>
<path d="M248.216 474.075C248.216 471.282 250.691 469.019 253.744 469.019H372.588C375.641 469.019 378.116 471.282 378.116 474.075C378.116 476.867 375.641 479.131 372.588 479.131H253.744C250.691 479.131 248.216 476.867 248.216 474.075Z" fill="white"/>
<path d="M351.399 450.48C351.399 447.688 353.873 445.424 356.926 445.424H449.054C452.106 445.424 454.581 447.688 454.581 450.48C454.581 453.272 452.106 455.536 449.054 455.536H356.926C353.873 455.536 351.399 453.272 351.399 450.48Z" fill="white"/>
<path d="M248.216 172.4C248.216 169.608 250.691 167.344 253.744 167.344H331.131C334.183 167.344 336.658 169.608 336.658 172.4C336.658 175.192 334.183 177.456 331.131 177.456H253.744C250.691 177.456 248.216 175.192 248.216 172.4Z" fill="white"/>
<path d="M248.216 195.995C248.216 193.202 250.691 190.939 253.744 190.939H444.447C447.5 190.939 449.975 193.202 449.975 195.995C449.975 198.787 447.5 201.051 444.447 201.051H253.744C250.691 201.051 248.216 198.787 248.216 195.995Z" fill="white"/>
<path d="M351.399 172.4C351.399 169.608 353.873 167.344 356.926 167.344H566.977C570.029 167.344 572.504 169.608 572.504 172.4C572.504 175.192 570.029 177.456 566.977 177.456H356.926C353.873 177.456 351.399 175.192 351.399 172.4Z" fill="white"/>
</g>
<rect x="2.5" y="2.5" width="1105" height="678" rx="22.5" stroke="#4C1D95" stroke-width="5"/>
<defs>
<clipPath id="clip0_3_889">
<rect x="5" y="5" width="1100" height="673" rx="20" fill="white"/>
</clipPath>
</defs>
</svg>
